<?xml version="1.0" encoding="UTF-8"?>
<svg id="Layer_2" data-name="Layer 2" xmlns="http://www.w3.org/2000/svg" viewBox="0 0 818.7 82.46">
  <defs>
    <style>
      .cls-1 {
        fill: #fff;
      }
    </style>
  </defs>
  <g id="Viewport_Boundary" data-name="Viewport Boundary">
    <g>
      <path class="cls-1" d="M287.99,25.84c-2.16-6.59-6.15-12.71-11.52-16.99-5.37-4.28-12.13-6.73-19.02-7.95C254.01.29,250.53,0,247.05,0h-113.62c-7.01-.01-14.02.75-20.45,3.39-6.42,2.64-12.26,7.16-16.04,12.88-3.78,5.73-5.5,12.66-6.19,19.67-.69,7-.37,14.08,1.79,20.68,2.16,6.59,6.15,12.71,11.52,16.99,5.37,4.28,12.13,6.73,19.02,7.94,3.44.61,6.92.92,10.4.91h113.62c7.01.01,14.02-.75,20.45-3.39,6.42-2.64,12.26-7.16,16.04-12.88,3.78-5.73,5.5-12.66,6.19-19.67.69-7,.37-14.08-1.79-20.68ZM263.85,43.76c-.12,3.29-.25,6.61-1.37,9.68s-3.23,5.89-5.96,7.61c-2.73,1.72-6.08,2.35-9.42,2.35h-.01c-16.49-.03-97.14-.05-113.62-.08-1.64,0-3.27-.21-4.85-.63-3.18-.86-6.15-2.6-8.16-5.11-2.01-2.5-3.06-5.78-3.53-9.05-.47-3.27-.37-6.53-.25-9.83.12-3.29.25-6.61,1.37-9.68s3.23-5.89,5.96-7.61c2.73-1.72,6.08-2.35,9.42-2.35h.01c16.49.03,97.14.05,113.62.08,1.64,0,3.27.21,4.85.63,3.18.86,6.15,2.6,8.16,5.1,2.01,2.51,3.06,5.79,3.53,9.06.47,3.27.37,6.53.25,9.83Z"/>
      <path class="cls-1" d="M69,9.03c6.83,5.87,10.25,14.27,10.25,25.17h-24.31c0-4.61-1.21-8.25-3.63-10.94-2.42-2.69-5.86-4.03-10.31-4.03-5.15,0-8.93,1.61-11.35,4.84s-3.63,7.72-3.63,13.48v7.37c0,5.68,1.21,10.16,3.63,13.42,2.42,3.27,6.12,4.9,11.12,4.9s8.64-1.27,11.17-3.8,3.8-6.1,3.8-10.71h23.5c0,10.83-3.32,19.12-9.96,24.88-6.64,5.76-16.03,8.64-28.16,8.64-13.52,0-23.75-3.46-30.7-10.37C3.47,64.96,0,54.75,0,41.23S3.47,17.5,10.42,10.59C17.37,3.68,27.61.22,41.12.22c11.75,0,21.04,2.94,27.88,8.81Z"/>
      <path class="cls-1" d="M357.95,80.86l-33.29-38.47v38.47h-23.38V1.61h22.23l33.29,39.05V1.61h23.38v79.25h-22.23Z"/>
      <path class="cls-1" d="M442.84,21.88v58.98h-25.46V21.88h-26.03V1.61h77.41v20.27h-25.92Z"/>
      <path class="cls-1" d="M551.69,39.04c-2.61,3.92-6.41,6.8-11.4,8.64l17.62,33.17h-28.57l-14.05-28.91h-9.45v28.91h-25.46V1.61h48.49c5.68,0,10.54,1.09,14.57,3.28,4.03,2.19,7.06,5.15,9.1,8.87,2.03,3.73,3.05,7.78,3.05,12.15,0,4.84-1.31,9.21-3.92,13.13ZM527.62,21.76c-1.38-1.38-3.07-2.07-5.07-2.07h-16.7v14.63h16.7c2,0,3.69-.71,5.07-2.13,1.38-1.42,2.07-3.17,2.07-5.24s-.69-3.8-2.07-5.18Z"/>
      <path class="cls-1" d="M623.11,80.86l-3.34-11.17h-27.76l-3.34,11.17h-26.03L591.55,1.61h29.6l28.91,79.25h-26.95ZM597.31,51.94h17.16l-8.29-28.22h-.46l-8.41,28.22Z"/>
      <path class="cls-1" d="M723.21,9.03c6.83,5.87,10.25,14.27,10.25,25.17h-24.31c0-4.61-1.21-8.25-3.63-10.94-2.42-2.69-5.86-4.03-10.31-4.03-5.15,0-8.93,1.61-11.35,4.84s-3.63,7.72-3.63,13.48v7.37c0,5.68,1.21,10.16,3.63,13.42,2.42,3.27,6.12,4.9,11.12,4.9s8.64-1.27,11.17-3.8,3.8-6.1,3.8-10.71h23.5c0,10.83-3.32,19.12-9.96,24.88-6.64,5.76-16.03,8.64-28.16,8.64-13.52,0-23.75-3.46-30.7-10.37-6.95-6.91-10.42-17.12-10.42-30.64s3.47-23.73,10.42-30.64c6.95-6.91,17.18-10.37,30.7-10.37,11.75,0,21.04,2.94,27.88,8.81Z"/>
      <path class="cls-1" d="M792.79,21.88v58.98h-25.46V21.88h-26.03V1.61h77.41v20.27h-25.92Z"/>
    </g>
  </g>
</svg>