<?xml version="1.0" encoding="UTF-8"?>
<svg id="Layer_2" data-name="Layer 2" xmlns="http://www.w3.org/2000/svg" viewBox="0 0 794.1 82.46">
  <defs>
    <style>
      .cls-1 {
        fill: #fff;
      }
    </style>
  </defs>
  <g id="Viewport_Boundary" data-name="Viewport Boundary">
    <g>
      <path class="cls-1" d="M380.63,25.84c-2.16-6.59-6.15-12.71-11.52-16.99-5.37-4.28-12.13-6.73-19.02-7.95C346.65.29,343.17,0,339.69,0h-113.62c-7.01-.01-14.02.75-20.45,3.39-6.42,2.64-12.26,7.16-16.04,12.88-3.78,5.73-5.5,12.66-6.19,19.67-.69,7-.37,14.08,1.79,20.68,2.16,6.59,6.15,12.71,11.52,16.99,5.37,4.28,12.13,6.73,19.02,7.94,3.44.61,6.92.92,10.4.91h113.62c7.01.01,14.02-.75,20.45-3.39,6.42-2.64,12.26-7.16,16.04-12.88,3.78-5.73,5.5-12.66,6.19-19.67.69-7,.37-14.08-1.79-20.68ZM356.49,43.76c-.12,3.29-.25,6.61-1.37,9.68s-3.23,5.89-5.96,7.61c-2.73,1.72-6.08,2.35-9.42,2.35h-.01c-16.49-.03-97.14-.05-113.62-.08-1.64,0-3.27-.21-4.85-.63-3.18-.86-6.15-2.6-8.16-5.11-2.01-2.5-3.06-5.78-3.53-9.05-.47-3.27-.37-6.53-.25-9.83.12-3.29.25-6.61,1.37-9.68s3.23-5.89,5.96-7.61c2.73-1.72,6.08-2.35,9.42-2.35h.01c16.49.03,97.14.05,113.62.08,1.64,0,3.27.21,4.85.63,3.18.86,6.15,2.6,8.16,5.1,2.01,2.51,3.06,5.79,3.53,9.06.47,3.27.37,6.53.25,9.83Z"/>
      <path class="cls-1" d="M60.82,80.39l-3.36-11.24h-27.92l-3.36,11.24H0L29.08.68h29.77l29.08,79.71h-27.11ZM34.87,51.31h17.26l-8.34-28.38h-.46l-8.46,28.38Z"/>
      <path class="cls-1" d="M161.67,3.17c3.36,1.66,6.02,4,7.99,7.01,1.97,3.01,2.95,6.37,2.95,10.08,0,9.81-4.44,15.99-13.32,18.54v.46c10.12,2.32,15.18,8.96,15.18,19.93,0,4.17-1.02,7.86-3.07,11.06-2.05,3.21-4.85,5.7-8.4,7.47-3.55,1.78-7.45,2.66-11.7,2.66h-53.76V.68h53.06c4.02,0,7.7.83,11.06,2.49ZM123.15,31.73h17.61c1.7,0,3.11-.6,4.23-1.8,1.12-1.2,1.68-2.68,1.68-4.46v-1.16c0-1.7-.58-3.15-1.74-4.34-1.16-1.2-2.55-1.8-4.17-1.8h-17.61v13.55ZM123.15,61.85h19.46c1.7,0,3.11-.6,4.23-1.8,1.12-1.2,1.68-2.68,1.68-4.46v-1.16c0-1.78-.56-3.26-1.68-4.46-1.12-1.2-2.53-1.8-4.23-1.8h-19.46v13.67Z"/>
      <path class="cls-1" d="M465.32,73.21c-6.88,5.72-16.64,8.57-29.31,8.57s-22.46-2.86-29.37-8.57c-6.91-5.71-10.37-14.02-10.37-24.91V.68h25.6v47.27c0,4.48,1.2,8.05,3.59,10.72,2.39,2.66,5.87,4,10.43,4s8.05-1.35,10.48-4.06c2.43-2.7,3.65-6.26,3.65-10.66V.68h25.6v47.61c0,10.89-3.44,19.19-10.31,24.91Z"/>
      <path class="cls-1" d="M538.65,21.07v59.32h-25.6V21.07h-26.18V.68h77.85v20.39h-26.07Z"/>
      <path class="cls-1" d="M683.46,80.39v-28.73c0-3.55.13-7.2.41-10.95.27-3.75.56-6.89.87-9.44.31-2.55.5-4.17.58-4.87h-.46l-14.71,53.99h-20.04l-14.83-53.87h-.46c.08.69.29,2.3.64,4.81.35,2.51.68,5.64.98,9.38.31,3.75.46,7.4.46,10.95v28.73h-23.52V.68h36.15l12.05,45.99h.46l11.93-45.99h34.87v79.71h-25.37Z"/>
      <path class="cls-1" d="M724.35.68h68.93v19.12h-43.33v11.01h37.07v18.3h-37.07v12.16h44.14v19.12h-69.74V.68Z"/>
    </g>
  </g>
</svg>