<?xml version="1.0" encoding="UTF-8"?>
<svg id="Layer_2" data-name="Layer 2" xmlns="http://www.w3.org/2000/svg" viewBox="0 0 714.87 84.48">
  <defs>
    <style>
      .cls-1 {
        fill: #fff;
      }
    </style>
  </defs>
  <g id="Viewport_Boundary" data-name="Viewport Boundary">
    <g>
      <path class="cls-1" d="M374.97,25.84c-2.16-6.59-6.15-12.71-11.52-16.99-5.37-4.28-12.13-6.73-19.02-7.95C340.99.29,337.51,0,334.03,0h-113.62c-7.01-.01-14.02.75-20.45,3.39-6.42,2.64-12.26,7.16-16.04,12.88-3.78,5.73-5.5,12.66-6.19,19.67-.69,7-.37,14.08,1.79,20.68,2.16,6.59,6.15,12.71,11.52,16.99,5.37,4.28,12.13,6.73,19.02,7.94,3.44.61,6.92.92,10.4.91h113.62c7.01.01,14.02-.75,20.45-3.39,6.42-2.64,12.26-7.16,16.04-12.88,3.78-5.73,5.5-12.66,6.19-19.67.69-7,.37-14.08-1.79-20.68ZM350.83,43.76c-.12,3.29-.25,6.61-1.37,9.68s-3.23,5.89-5.96,7.61c-2.73,1.72-6.08,2.35-9.42,2.35h-.01c-16.49-.03-97.14-.05-113.62-.08-1.64,0-3.27-.21-4.85-.63-3.18-.86-6.15-2.6-8.16-5.11-2.01-2.5-3.06-5.78-3.53-9.05-.47-3.27-.37-6.53-.25-9.83.12-3.29.25-6.61,1.37-9.68s3.23-5.89,5.96-7.61c2.73-1.72,6.08-2.35,9.42-2.35h.01c16.49.03,97.14.05,113.62.08,1.64,0,3.27.21,4.85.63,3.18.86,6.15,2.6,8.16,5.1,2.01,2.51,3.06,5.79,3.53,9.06.47,3.27.37,6.53.25,9.83Z"/>
      <path class="cls-1" d="M57.57,7.28c3.84,2.27,6.83,5.37,8.98,9.33,2.15,3.95,3.22,8.39,3.22,13.3v1.5c0,4.91-1.08,9.37-3.22,13.36-2.15,3.99-5.14,7.12-8.98,9.38-3.84,2.27-8.21,3.4-13.13,3.4h-19v25.56H0V3.88h44.44c4.91,0,9.29,1.13,13.13,3.4ZM25.45,39h10.48c2.69,0,4.7-.69,6.04-2.07,1.34-1.38,2.02-3.26,2.02-5.64v-.92c0-2.46-.67-4.36-2.02-5.7-1.34-1.34-3.36-2.01-6.04-2.01h-10.48v16.35Z"/>
      <path class="cls-1" d="M154.4,41.3c-2.61,3.92-6.41,6.79-11.4,8.64l17.62,33.16h-28.55l-14.05-28.9h-9.44v28.9h-25.45V3.88h48.47c5.68,0,10.54,1.09,14.56,3.28,4.03,2.19,7.06,5.14,9.1,8.87,2.03,3.72,3.05,7.77,3.05,12.15,0,4.84-1.31,9.21-3.92,13.13ZM130.34,24.03c-1.38-1.38-3.07-2.07-5.07-2.07h-16.7v14.62h16.7c2,0,3.68-.71,5.07-2.13,1.38-1.42,2.07-3.17,2.07-5.24s-.69-3.8-2.07-5.18Z"/>
      <path class="cls-1" d="M445.16,77.46c-5.64,4.68-13.76,7.02-24.35,7.02s-18.71-2.34-24.35-7.02c-5.64-4.68-8.46-11.97-8.46-21.88v-1.04h23.83v.92c0,3.61.67,6.18,2.01,7.71,1.34,1.54,3.4,2.3,6.16,2.3s4.82-.77,6.16-2.3c1.34-1.53,2.02-4.11,2.02-7.71V3.88h25.45v51.7c0,9.9-2.82,17.2-8.46,21.88Z"/>
      <path class="cls-1" d="M470.66,3.88h68.51v19h-43.06v10.94h36.84v18.19h-36.84v12.09h43.87v19h-69.31V3.88Z"/>
      <path class="cls-1" d="M619.42,11.31c6.83,5.87,10.25,14.26,10.25,25.16h-24.29c0-4.61-1.21-8.25-3.63-10.94-2.42-2.69-5.85-4.03-10.3-4.03-5.14,0-8.92,1.61-11.34,4.84-2.42,3.22-3.63,7.71-3.63,13.47v7.37c0,5.68,1.21,10.15,3.63,13.41,2.42,3.26,6.12,4.89,11.11,4.89s8.64-1.27,11.17-3.8,3.8-6.1,3.8-10.71h23.49c0,10.82-3.32,19.11-9.96,24.87-6.64,5.76-16.02,8.64-28.15,8.64-13.51,0-23.74-3.45-30.68-10.36-6.95-6.91-10.42-17.12-10.42-30.63s3.47-23.72,10.42-30.63c6.95-6.91,17.17-10.36,30.68-10.36,11.74,0,21.03,2.94,27.86,8.81Z"/>
      <path class="cls-1" d="M688.96,24.15v58.95h-25.45V24.15h-26.02V3.88h77.37v20.27h-25.91Z"/>
    </g>
  </g>
</svg>