<?xml version="1.0" encoding="UTF-8"?>
<svg id="Layer_2" data-name="Layer 2" xmlns="http://www.w3.org/2000/svg" viewBox="0 0 48.87 44.62">
  <defs>
    <style>
      .cls-1 {
        fill: #fff;
      }
    </style>
  </defs>
  <g id="Layer_02" data-name="Layer 02">
    <path class="cls-1" d="M24.43,29.02c-.66-.9-1.04-1.21-1.39-1.44-.35-.23-.67-.39-1.06-.51s-.85-.22-1.31-.26c-.46-.05-.93-.06-1.39-.03-.46.03-.92.09-1.37.22-.45.13-.9.32-1.3.58-.4.25-.76.56-1.06.92-.29.36-.52.77-.67,1.21s-.22.9-.22,1.37c0,.46.07.92.19,1.37.13.45.31.88.8,1.46.49.58,1.28,1.31,2,1.96,4.34,3.91,6.3,4.95,6.76,8.75.46-3.8,3.31-5.76,7.68-10.17.62-.63,1.28-1.31,1.64-1.88.36-.57.43-1.03.43-1.5,0-.46-.07-.93-.22-1.37s-.37-.85-.67-1.21c-.29-.36-.65-.67-1.06-.92-.4-.25-.85-.45-1.3-.58-.45-.13-.91-.19-1.37-.22-.46-.03-.93-.02-1.39.03-.46.05-.92.14-1.31.26s-.71.28-1.06.51c-.35.23-.73.54-1.39,1.44Z"/>
    <path class="cls-1" d="M48.32,7.37c-.37-1.1-.94-2.13-1.67-3.03-.73-.9-1.64-1.67-2.64-2.3-1.01-.63-2.13-1.12-3.26-1.44-1.13-.33-2.27-.49-3.43-.56-1.15-.07-2.32-.05-3.48.07-1.15.12-2.3.35-3.28.66-.98.31-1.78.71-2.65,1.29-.88.58-1.82,1.34-3.48,3.6-1.65-2.26-2.6-3.02-3.47-3.6-.88-.58-1.68-.98-2.66-1.29-.97-.31-2.12-.54-3.28-.66-1.16-.12-2.32-.14-3.48-.07-1.15.07-2.3.23-3.43.56-1.13.32-2.24.81-3.25,1.44s-1.91,1.4-2.64,2.3c-.74.9-1.3,1.93-1.67,3.03C.18,8.47,0,9.64,0,10.8c-.01,1.16.16,2.31.48,3.43s.78,2.2,1.42,3.17c.63.97,1.44,1.82,2.36,2.53.92.72,1.93,1.29,2.99,1.77,1.06.47,2.17.85,3.3,1.12,1.12.27,2.28.43,3.44.51,1.15.07,2.32.05,3.48.04,1.16,0,2.32,0,3.48,0s2.32-.01,3.48-.01,2.32.01,3.48.01,2.33,0,3.49,0c1.16.01,2.32.03,3.48-.04,1.16-.08,2.31-.24,3.44-.51,1.13-.27,2.23-.65,3.29-1.12,1.06-.48,2.08-1.05,3-1.77.91-.71,1.72-1.56,2.36-2.53.64-.97,1.1-2.05,1.41-3.17.32-1.12.49-2.27.49-3.43s-.18-2.33-.55-3.43ZM20.71,18.38c-.05.99-.12,2.02-.59,2.81-.47.79-1.35,1.34-2.28,1.57-.93.24-1.91.17-2.87,0-.95-.17-1.89-.43-2.73-.88-.83-.46-1.56-1.11-2.21-1.82-.66-.71-1.23-1.49-1.72-2.31-.5-.82-.92-1.69-1.23-2.6-.31-.91-.51-1.85-.65-2.81-.14-.95-.2-1.91-.21-2.87,0-.96.07-1.92.26-2.87.18-.94.47-1.86.94-2.7.46-.84,1.09-1.6,1.87-2.14.77-.53,1.69-.84,2.64-.96.94-.13,1.92-.07,2.85.18.93.24,1.82.67,2.57,1.22.76.56,1.39,1.24,1.87,2.04.47.8.78,1.72,1.01,2.66.23.93.37,1.88.45,2.84.09.96.11,1.92.13,2.88.02.96.03,1.93.01,2.88-.01.95-.05,1.9-.11,2.88ZM42.43,12.34c-.13.96-.33,1.9-.64,2.81-.31.91-.74,1.78-1.23,2.6-.5.82-1.07,1.6-1.72,2.31-.65.71-1.38,1.36-2.22,1.82-.83.45-1.77.71-2.73.88-.96.17-1.94.24-2.86,0-.93-.23-1.81-.78-2.28-1.57-.48-.79-.54-1.82-.6-2.81-.05-.98-.09-1.93-.11-2.88-.01-.95,0-1.92.02-2.88.01-.96.04-1.92.12-2.88.09-.96.23-1.91.46-2.84.22-.94.54-1.86,1.01-2.66.47-.8,1.1-1.48,1.86-2.04.76-.55,1.64-.98,2.57-1.22.94-.25,1.91-.31,2.86-.18.95.12,1.86.43,2.64.96.77.54,1.4,1.3,1.87,2.14.46.84.76,1.76.94,2.7.18.95.25,1.91.25,2.87s-.07,1.92-.21,2.87Z"/>
  </g>
</svg>