<?xml version="1.0" encoding="UTF-8"?>
<svg id="Layer_2" data-name="Layer 2" xmlns="http://www.w3.org/2000/svg" viewBox="0 0 1986.71 123.49">
  <defs>
    <style>
      .cls-1 {
        fill: #fff;
      }
    </style>
  </defs>
  <g id="Viewport_Boundary" data-name="Viewport Boundary">
    <g>
      <path class="cls-1" d="M986.46,38.77c-3.14-9.58-8.94-18.48-16.75-24.7-7.81-6.22-17.63-9.78-27.65-11.56-5-.89-10.06-1.32-15.12-1.31h-165.18c-10.19-.01-20.38,1.09-29.73,4.93-9.33,3.84-17.82,10.41-23.32,18.72-5.5,8.33-8,18.4-9,28.6-1,10.18-.54,20.47,2.6,30.06,3.14,9.58,8.94,18.48,16.75,24.7,7.81,6.22,17.63,9.78,27.65,11.54,5,.89,10.06,1.34,15.12,1.32h165.18c10.19.01,20.38-1.09,29.73-4.93,9.33-3.84,17.82-10.41,23.32-18.72,5.5-8.33,8-18.4,9-28.6,1-10.18.54-20.47-2.6-30.06ZM951.37,64.82c-.17,4.78-.36,9.61-1.99,14.07-1.63,4.46-4.7,8.56-8.66,11.06-3.97,2.5-8.84,3.42-13.69,3.42h-.01c-23.97-.04-141.22-.07-165.18-.12-2.38,0-4.75-.31-7.05-.92-4.62-1.25-8.94-3.78-11.86-7.43-2.92-3.63-4.45-8.4-5.13-13.16-.68-4.75-.54-9.49-.36-14.29.17-4.78.36-9.61,1.99-14.07s4.7-8.56,8.66-11.06c3.97-2.5,8.84-3.42,13.69-3.42h.01c23.97.04,141.22.07,165.18.12,2.38,0,4.75.31,7.05.92,4.62,1.25,8.94,3.78,11.86,7.41,2.92,3.65,4.45,8.42,5.13,13.17.68,4.75.54,9.49.36,14.29Z"/>
      <path class="cls-1" d="M1571.67,37.57c-3.14-9.58-8.94-18.48-16.75-24.7-7.81-6.22-17.63-9.78-27.65-11.56-5-.89-10.06-1.32-15.12-1.31h-165.18c-10.19-.01-20.38,1.09-29.73,4.93-9.33,3.84-17.82,10.41-23.32,18.72-5.5,8.33-8,18.4-9,28.6-1,10.18-.54,20.47,2.6,30.06,3.14,9.58,8.94,18.48,16.75,24.7,7.81,6.22,17.63,9.78,27.65,11.54,5,.89,10.06,1.34,15.12,1.32h165.18c10.19.01,20.38-1.09,29.73-4.93,9.33-3.84,17.82-10.41,23.32-18.72,5.5-8.33,8-18.4,9-28.6,1-10.18.54-20.47-2.6-30.06ZM1536.58,63.62c-.17,4.78-.36,9.61-1.99,14.07s-4.7,8.56-8.66,11.06c-3.97,2.5-8.84,3.42-13.69,3.42h-.01c-23.97-.04-141.22-.07-165.18-.12-2.38,0-4.75-.31-7.05-.92-4.62-1.25-8.94-3.78-11.86-7.43-2.92-3.63-4.45-8.4-5.13-13.16-.68-4.75-.54-9.49-.36-14.29.17-4.78.36-9.61,1.99-14.07,1.63-4.46,4.7-8.56,8.66-11.06,3.97-2.5,8.84-3.42,13.69-3.42h.01c23.97.04,141.22.07,165.18.12,2.38,0,4.75.31,7.05.92,4.62,1.25,8.94,3.78,11.86,7.41,2.92,3.65,4.45,8.42,5.13,13.17.68,4.75.54,9.49.36,14.29Z"/>
      <path class="cls-1" d="M85.88,8.33c5.72,3.38,10.19,8.02,13.4,13.91,3.2,5.9,4.81,12.51,4.81,19.84v2.23c0,7.33-1.6,13.97-4.81,19.92-3.21,5.96-7.67,10.62-13.4,14-5.73,3.38-12.25,5.07-19.58,5.07h-20.97c-4.07,0-7.37,3.3-7.37,7.37v23.39c0,4.07-3.3,7.37-7.37,7.37H7.37c-4.07,0-7.37-3.3-7.37-7.37V10.64C0,6.57,3.3,3.27,7.37,3.27h58.92c7.33,0,13.85,1.69,19.58,5.07ZM37.96,48.28c0,4.07,3.3,7.37,7.37,7.37h8.26c4.01,0,7.01-1.03,9.02-3.09,2-2.06,3.01-4.87,3.01-8.42v-1.37c0-3.66-1-6.5-3.01-8.5-2-2-5.01-3.01-9.02-3.01h-8.26c-4.07,0-7.37,3.3-7.37,7.37v9.64Z"/>
      <path class="cls-1" d="M187.58,118.06l-2.97-9.92c-.6-2-2.44-3.37-4.52-3.37h-34.36c-2.09,0-3.92,1.37-4.52,3.37l-2.97,9.92c-.6,2-2.44,3.37-4.52,3.37h-28.56c-3.28,0-5.56-3.26-4.43-6.34L140.39,6.37c.68-1.86,2.45-3.1,4.43-3.1h37.54c1.98,0,3.75,1.24,4.43,3.1l39.67,108.73c1.12,3.08-1.16,6.34-4.43,6.34h-29.93c-2.09,0-3.92-1.37-4.52-3.37ZM156.44,78.32h12.95c3.15,0,5.42-3.03,4.53-6.05l-10.59-36.03h-.69l-10.73,36.01c-.9,3.03,1.37,6.07,4.52,6.07Z"/>
      <path class="cls-1" d="M329.94,6.36c9.04,3.44,16.23,8.5,21.56,15.2,4.07,5.12,6.58,11.08,7.54,17.9.49,3.48-2.27,6.57-5.78,6.57h-25.02c-2.52,0-4.84-1.6-5.54-4.03-.89-3.11-2.89-5.75-5.98-7.91-4.35-3.03-9.62-4.55-15.8-4.55-8.93,0-15.69,2.38-20.27,7.13-4.58,4.75-6.87,11.48-6.87,20.18v10.99c0,8.7,2.29,15.43,6.87,20.18,4.58,4.75,11.34,7.13,20.27,7.13,6.18,0,11.45-1.46,15.8-4.38.42-.28.82-.57,1.2-.87,4.33-3.4,1.87-10.38-3.64-10.38h-12.01c-3.22,0-5.82-2.61-5.82-5.82v-12.4c0-3.22,2.61-5.82,5.82-5.82h51.39c3.22,0,5.82,2.61,5.82,5.82v54.31c0,3.22-2.61,5.82-5.82,5.82h-9.52c-2.53,0-4.76-1.63-5.54-4.03h0c-1.16-3.6-5.4-5.16-8.6-3.15-9.81,6.16-21.85,9.24-36.12,9.24-19.58,0-34.29-5.12-44.14-15.37-9.85-10.25-14.77-25.51-14.77-45.77s5.58-35.24,16.75-45.6c11.16-10.36,27.05-15.54,47.66-15.54,11.34,0,21.53,1.72,30.57,5.15Z"/>
      <path class="cls-1" d="M391.17,3.27h85.88c4.51,0,8.16,3.65,8.16,8.16v12.02c0,4.51-3.65,8.16-8.16,8.16h-47.92c-4.51,0-8.16,3.65-8.16,8.16h0c0,4.51,3.65,8.16,8.16,8.16h38.64c4.51,0,8.16,3.65,8.16,8.16v10.82c0,4.51-3.65,8.16-8.16,8.16h-38.64c-4.51,0-8.16,3.65-8.16,8.16v1.72c0,4.51,3.65,8.16,8.16,8.16h49.12c4.51,0,8.16,3.65,8.16,8.16v12.02c0,4.51-3.65,8.16-8.16,8.16h-87.08c-4.51,0-8.16-3.65-8.16-8.16V11.42c0-4.51,3.65-8.16,8.16-8.16Z"/>
      <path class="cls-1" d="M647.1,119.58l-38.6-44.61c-3.25-3.76-9.43-1.46-9.43,3.51v37.58c0,2.97-2.4,5.37-5.37,5.37h-24.12c-2.97,0-5.37-2.4-5.37-5.37V8.64c0-2.97,2.4-5.37,5.37-5.37h25.3c1.57,0,3.07.69,4.09,1.89l38.57,45.24c3.24,3.8,9.46,1.51,9.46-3.48V8.64c0-2.97,2.4-5.37,5.37-5.37h24.12c2.97,0,5.37,2.4,5.37,5.37v107.42c0,2.97-2.4,5.37-5.37,5.37h-25.32c-1.56,0-3.04-.68-4.06-1.86Z"/>
      <path class="cls-1" d="M1070.56,37.75v79.43c0,2.35-1.9,4.25-4.25,4.25h-29.45c-2.35,0-4.25-1.9-4.25-4.25V37.75c0-2.35-1.9-4.25-4.25-4.25h-30.31c-2.35,0-4.25-1.9-4.25-4.25V7.52c0-2.35,1.9-4.25,4.25-4.25h106.91c2.35,0,4.25,1.9,4.25,4.25v21.72c0,2.35-1.9,4.25-4.25,4.25h-30.14c-2.35,0-4.25,1.9-4.25,4.25Z"/>
      <path class="cls-1" d="M1188.07,3.27h86.83c2.39,0,4.33,1.94,4.33,4.33v19.68c0,2.39-1.94,4.33-4.33,4.33h-48.88c-2.39,0-4.33,1.94-4.33,4.33v11.61c0,2.39,1.94,4.33,4.33,4.33h40.81c2.39,0,4.33,1.94,4.33,4.33v18.48c0,2.39-1.94,4.33-4.33,4.33h-40.81c-2.39,0-4.33,1.94-4.33,4.33v33.76c0,2.39-1.94,4.33-4.33,4.33h-29.3c-2.39,0-4.33-1.94-4.33-4.33V7.6c0-2.39,1.94-4.33,4.33-4.33Z"/>
      <path class="cls-1" d="M1689.75,109.58c-10.19,8.48-24.68,12.71-43.45,12.71s-33.29-4.23-43.54-12.71c-10.25-8.47-15.37-20.78-15.37-36.93V7.46c0-2.98,2.42-5.4,5.4-5.4h27.16c2.98,0,5.4,2.42,5.4,5.4v64.68c0,6.64,1.77,11.94,5.32,15.89,3.55,3.95,8.7,5.93,15.46,5.93s11.94-2,15.54-6.01c3.61-4.01,5.41-9.27,5.41-15.8V7.46c0-2.98,2.42-5.4,5.4-5.4h27.16c2.98,0,5.4,2.42,5.4,5.4v65.19c0,16.15-5.1,28.45-15.29,36.93Z"/>
      <path class="cls-1" d="M1813.62,118.69l-40.48-46.78c-2.7-3.12-7.83-1.21-7.83,2.92v40.95c0,2.46-1.99,4.46-4.46,4.46h-25.95c-2.46,0-4.46-1.99-4.46-4.46V6.52c0-2.46,1.99-4.46,4.46-4.46h26.64c1.3,0,2.54.57,3.39,1.57l40.46,47.46c2.69,3.15,7.85,1.25,7.85-2.89V6.52c0-2.46,1.99-4.46,4.46-4.46h25.95c2.46,0,4.46,1.99,4.46,4.46v109.25c0,2.46-1.99,4.46-4.46,4.46h-26.66c-1.29,0-2.52-.56-3.37-1.54Z"/>
      <path class="cls-1" d="M1986.71,61.14c0,39.39-20.67,59.08-62,59.08h-45.51c-3.13,0-5.68-2.54-5.68-5.68V7.74c0-3.13,2.54-5.68,5.68-5.68h45.51c41.33,0,62,19.7,62,59.08ZM1911.48,86.21c0,3.13,2.54,5.68,5.68,5.68h6.86c15.91,0,23.87-8.53,23.87-25.59v-10.31c0-17.06-7.96-25.59-23.87-25.59h-6.86c-3.13,0-5.68,2.54-5.68,5.68v50.14Z"/>
    </g>
  </g>
</svg>